<mxfile host="app.diagrams.net" modified="2023-06-05T14:23:02.423Z" agent="Mozilla/5.0 (Macintosh; Intel Mac OS X 10.15; rv:109.0) Gecko/20100101 Firefox/113.0" version="21.3.3" etag="3jBjoHKOiL71Cn4PYFFT" type="github">
  <diagram name="Page-1" id="P3eqn3gnvckSvUPAYU3M">
    <mxGraphModel>
      <root>
        <mxCell id="0" />
        <mxCell id="1" parent="0" />
      </root>
    </mxGraphModel>
  </diagram>
</mxfile>
